<svg id="a6d501a1-35dd-4b01-982b-2ba09cf9d40d" data-name="Layer 1" xmlns="http://www.w3.org/2000/svg" viewBox="0 0 555 175"><defs><style>.b555f035-ddb7-45c4-a3cc-c93e6b76b4cf{fill:#e00;}</style></defs><path class="b555f035-ddb7-45c4-a3cc-c93e6b76b4cf" d="M144.7,87.11c1.57,7.43,1.57,8.21,1.57,9.19,0,12.71-14.28,19.75-33.05,19.75-42.43,0-79.59-24.83-79.59-41.26A16.78,16.78,0,0,1,35,68.14c-15.25.78-35,3.52-35,20.92,0,28.55,67.66,63.75,121.24,63.75,41.06,0,51.43-18.57,51.43-33.24,0-11.54-10-24.64-28-32.46M115.18,97.47c11.34,0,27.76-2.34,27.76-15.84a12.92,12.92,0,0,0-.28-3.1l-6.75-29.36c-1.57-6.45-2.94-9.38-14.28-15.05-8.8-4.5-28-11.93-33.63-11.93-5.28,0-6.85,6.84-13.11,6.84C68.83,29,64.34,24,58.67,24c-5.48,0-9,3.71-11.74,11.34,0,0-7.62,21.51-8.6,24.64a5.48,5.48,0,0,0-.2,1.76c0,8.36,32.92,35.78,77.05,35.78"/><path d="M144.7,87.11c1.57,7.43,1.57,8.21,1.57,9.19,0,12.71-14.28,19.75-33.05,19.75-42.43,0-79.59-24.83-79.59-41.26A16.78,16.78,0,0,1,35,68.14l3.33-8.21a5.48,5.48,0,0,0-.2,1.76c0,8.36,32.92,35.78,77.05,35.78,11.34,0,27.76-2.34,27.76-15.84a12.92,12.92,0,0,0-.28-3.1l2,8.58Z"/><path d="M204.57,121.28H221V97h12.5l12.59,24.33h18.32L249.69,94.57a20.21,20.21,0,0,0,12.59-18.8c0-12-9.44-21.27-23.56-21.27H204.57v66.78Zm32.62-52.76c5.44,0,8.49,3.44,8.49,7.54s-3.05,7.54-8.49,7.54H221V68.52Zm26.62,27.57c0,14.69,12,26.14,27.47,26.14a30.28,30.28,0,0,0,21.08-7.63l-10.2-9.06c-2.39,2.48-5.92,3.81-10.11,3.81a13.06,13.06,0,0,1-12.41-8h36V97.52c0-16-10.78-27.57-25.47-27.57a25.92,25.92,0,0,0-26.33,26.14m26-13.54a11.15,11.15,0,0,1,10.59,8H279.36c1.52-5.06,5.34-8,10.49-8m70,38.73h15.27V51.16L359.68,54.5v19a25.67,25.67,0,0,0-12.88-3.34c-14.69,0-26.23,11.36-26.23,25.86a25.63,25.63,0,0,0,25.76,26,22.75,22.75,0,0,0,13.54-4.39v3.72ZM335.74,96c0-7.25,5.72-12.79,13.26-12.79a15.64,15.64,0,0,1,10.68,3.91v17.65a14.84,14.84,0,0,1-10.68,4c-7.44,0-13.26-5.53-13.26-12.78m62.52,25.28h16.41V95.14h27.48v26.14h16.4V54.5h-16.4V80.16H414.67V54.5H398.26v66.78Zm83.86.86a23.63,23.63,0,0,0,13.93-3.92v3.06h15.26V88.94c0-12.31-8.3-19.08-22.13-19.08-7.73,0-15.36,1.81-23.57,5.53l5.54,11.35c5.91-2.48,10.87-4,15.26-4,6.39,0,9.64,2.48,9.64,7.53v2.48a45.07,45.07,0,0,0-11.45-1.43c-13,0-20.8,5.44-20.8,15.17,0,8.87,7.06,15.65,18.32,15.65M477.4,106.2c0-3.33,3.34-5,8.4-5a38.6,38.6,0,0,1,9.15,1.15v6.49a19.51,19.51,0,0,1-9.63,2.38c-5,0-7.92-1.91-7.92-5.06m48-.28c0,10.78,6.48,16,18.31,16a47.18,47.18,0,0,0,10.78-1.53v-12.5a22.5,22.5,0,0,1-7,1c-4.87,0-6.68-1.53-6.68-6.1V83.69H555V70.81H540.88V54.5l-15.45,3.34v13H515.22V83.69h10.21v22.23Z"/></svg>